<svg xmlns="http://www.w3.org/2000/svg" viewBox="0 0 517.13 173.25">
  <defs>
    <style>
      .cls-1 {
        fill: #edf7fa;
      }

      .cls-2 {
        font-size: 37px;
        font-family: FreestyleScript-Regular, Freestyle Script;
      }

      .cls-11, .cls-2 {
        fill: #207820;
      }

      .cls-3 {
        font-size: 48px;
        letter-spacing: -0.03em;
      }

      .cls-3, .cls-4 {
        fill: #175b00;
        stroke: #175b00;
        font-family: FelixTitlingMT, Felix Titling;
      }

      .cls-10, .cls-3, .cls-4, .cls-7 {
        stroke-miterlimit: 10;
      }

      .cls-4 {
        font-size: 60px;
        letter-spacing: -0.04em;
      }

      .cls-5 {
        fill: #fddd1e;
      }

      .cls-10, .cls-6, .cls-7 {
        fill: none;
      }

      .cls-6, .cls-7 {
        stroke: #fddd1e;
      }

      .cls-6 {
        stroke-linecap: round;
        stroke-linejoin: round;
      }

      .cls-8 {
        fill: #f60;
      }

      .cls-9 {
        fill: #fff;
      }

      .cls-10 {
        stroke: #fed41e;
        stroke-width: 1.5px;
      }
    </style>
  </defs>
  <g id="Layer_2" data-name="Layer 2">
    <g id="Layer_1-2" data-name="Layer 1">
      <polygon class="cls-1" points="0 0 19.54 0 80.29 60.5 93.29 60.5 71.54 0 128.79 0 121.04 55.25 138.79 58.5 174.79 0 228.29 0 245.29 26 150.29 81.5 152.54 91.5 230.29 79.5 234.29 102.5 145.04 102.5 146.04 107.5 237.79 159 173.79 159 129.54 118.5 124.29 122.25 137.29 159 94.29 159 96.54 116.75 83.29 116.75 59.79 159 0 159 0 143.25 76.29 101.75 0 102.25 0 79.5 77.29 94.25 73.79 76.5 0 36.25 0 0"/>
      <g>
        <text class="cls-2" transform="translate(166.13 153.05)">A Charitable Organization</text>
        <g>
          <text class="cls-3" transform="matrix(1, 0.01, -0.14, 0.99, 169.01, 117.44)">A BIT OF H</text>
          <text class="cls-4" transform="matrix(0.85, 0.01, -0.14, 0.99, 395.13, 119.62)">O</text>
          <text class="cls-3" transform="matrix(1, 0.01, -0.14, 0.99, 434.8, 120)">PE</text>
        </g>
        <g>
          <polygon class="cls-5" points="30.21 58.3 14.68 76.43 28.64 57.06 30.21 58.3"/>
          <polygon class="cls-5" points="27.52 56.5 14.3 68.8 26.08 55.11 27.52 56.5"/>
          <polygon class="cls-5" points="24.7 55.03 14.43 60.18 23.65 53.33 24.7 55.03"/>
          <polygon class="cls-5" points="24.21 53.51 5.93 57.93 23.64 51.59 24.21 53.51"/>
          <polygon class="cls-5" points="27.87 51.17 14.05 51.18 27.73 49.18 27.87 51.17"/>
          <polygon class="cls-5" points="31.38 48.3 19.3 48.3 31.22 46.31 31.38 48.3"/>
          <polygon class="cls-5" points="28.64 45.67 19.3 45.55 28.46 43.68 28.64 45.67"/>
          <polygon class="cls-5" points="27.47 42.8 19.3 42.18 27.38 40.8 27.47 42.8"/>
          <polygon class="cls-5" points="25.17 39.67 18.8 37.8 25.43 37.69 25.17 39.67"/>
          <polygon class="cls-5" points="25.03 37.01 16.55 33.55 25.58 35.09 25.03 37.01"/>
          <polygon class="cls-5" points="24.85 33.82 15.68 28.05 25.75 32.04 24.85 33.82"/>
          <polygon class="cls-5" points="23.37 28.76 13.3 20.8 24.48 27.1 23.37 28.76"/>
          <polygon class="cls-5" points="23.3 23.96 12.43 13.93 24.55 22.4 23.3 23.96"/>
          <polygon class="cls-5" points="24.02 20.92 18.18 11.93 25.59 19.68 24.02 20.92"/>
          <polygon class="cls-5" points="26.53 18.99 24.55 12.68 28.32 18.11 26.53 18.99"/>
          <polygon class="cls-5" points="28.6 17.12 25.3 4.05 30.5 16.49 28.6 17.12"/>
          <polygon class="cls-5" points="32.06 20.21 31.18 8.05 34.04 19.9 32.06 20.21"/>
          <polygon class="cls-5" points="34.3 21.38 34.18 6.68 36.3 21.23 34.3 21.38"/>
          <polygon class="cls-5" points="37.43 19.51 37.43 6.68 39.42 19.35 37.43 19.51"/>
          <polygon class="cls-5" points="40.18 24.37 41.05 7.18 42.18 24.36 40.18 24.37"/>
          <polygon class="cls-5" points="42.3 28.72 44.68 11.55 44.3 28.88 42.3 28.72"/>
          <polygon class="cls-5" points="45.05 32.37 46.93 16.93 47.05 32.48 45.05 32.37"/>
          <polygon class="cls-5" points="48.31 32.77 51.3 20.18 50.29 33.08 48.31 32.77"/>
          <polygon class="cls-5" points="51.2 32.62 61.18 23.55 52.65 33.99 51.2 32.62"/>
          <polygon class="cls-5" points="53.41 34.63 70.3 28.43 54.2 36.47 53.41 34.63"/>
          <polygon class="cls-5" points="53.63 36.69 66.93 35.43 53.97 38.66 53.63 36.69"/>
        </g>
        <path class="cls-6" d="M51.3,40.3c-.69-1.81-.64-3.56-3.15-4.33-2.3-.7-5.85,1-6.09,3.52.47-3.11-5.14-5.7-7.06-8-2.38-2.84-2.49-7.11-4.12-10.22-1.48.78-1.59,2.62-1.51,4.15-2.48-.55-1.24,1.28-.83,2.22s1.37,1,1,2.19c-.25.78-2-.37-1.85,1.16.06.94,1.67.36,1.86,1.08.24.92-.36.68-.38,1.15a8.37,8.37,0,0,0,.22,3.62c-.23.09-.42,0-.66.13,0,0,0,.87,0,.85a8.84,8.84,0,0,1,3.64,3c.4.69-.64.81.31,2,1.33,1.69,4,.64,6.11.43-1.42,1.75-2,4-3.57,5.51S30.53,51.09,28.45,52c.36,0,1.25.24,1.84.23.89,2.65,4.08,1,5-.53,1,4.48,3-2.19,3.4-2.65.28.5.61.27.72,1.17,1.16-.19.82-.88,1.66-1.39a18.61,18.61,0,0,1,1.77-1c1.45-.69,2.3-.38,3.47-1.72C48,44.24,47.68,40.27,51.3,40.3Z"/>
        <path class="cls-7" d="M34.4,28.43c-.53-1.16.55-.92,1-1.45s-.06-1.67.26-2.49c.38-1,.7-.28,1.46-.79a3.25,3.25,0,0,0,1-2.42c.85.85.15,3.18.34,4.36a19.77,19.77,0,0,0,1.12,4.13c1.08,2.53,4.35,5.55,2.5,8.4a5.74,5.74,0,0,0-2-2.7c-.49-.41-1.91-1.29-2.77-2C36,32.39,34,30.3,34.4,28.43Z"/>
        <g>
          <path class="cls-8" d="M105.07,147.75a257.62,257.62,0,0,1-41.33-28c-20.5-17.17-27.84-36.5-25.84-51s8.5-25.5,25.34-28.83,28.33.16,40.16,11.16c7.67-5.66,12.42-9.83,21.84-11.66,12.21-2.38,27.5-.5,35.66,9.5s13.5,27.29,5.5,44.31-20.67,27.2-31,36C127.58,135.93,111.11,146.67,105.07,147.75Z"/>
          <g>
            <ellipse class="cls-9" cx="106.52" cy="94.1" rx="8.25" ry="10.14" transform="translate(-26.84 44.95) rotate(-21.23)"/>
            <ellipse class="cls-10" cx="103.97" cy="85.94" rx="10.14" ry="3.88" transform="translate(-29.04 63.5) rotate(-30)"/>
            <path class="cls-9" d="M96.06,111.75a7.61,7.61,0,0,1-3,2.82,6.87,6.87,0,0,1-4.19.71c-2.92-.47-5.26-2.35-7.12-4.35a32.82,32.82,0,0,1-4.67-6.73,48,48,0,0,1-3.21-7.45c1.42,2.3,2.77,4.61,4.22,6.85a45.74,45.74,0,0,0,4.76,6.31,17,17,0,0,0,2.86,2.59,9.58,9.58,0,0,0,3.37,1.63,6.44,6.44,0,0,0,3.68-.23A8.74,8.74,0,0,0,96.06,111.75Z"/>
            <path class="cls-9" d="M116.06,116.09a8.92,8.92,0,0,0,3,1.31,8.63,8.63,0,0,0,1.58.24,11.56,11.56,0,0,0,1.56-.06,11.29,11.29,0,0,0,3-.87c.47-.25,1-.43,1.42-.71l1.34-.87a15,15,0,0,0,1.28-1c.41-.36.86-.65,1.24-1.05l1.18-1.14a14.12,14.12,0,0,0,1.15-1.17l1.12-1.22a14.67,14.67,0,0,0,1.1-1.25c.71-.85,1.42-1.71,2.2-2.53-.5,1-1,2-1.61,3s-1.27,1.86-1.92,2.79l-.51.68-.58.63-1.16,1.27a11.77,11.77,0,0,1-1.28,1.15,16,16,0,0,1-1.35,1.08,12.17,12.17,0,0,1-6.55,2.38A7.82,7.82,0,0,1,116.06,116.09Z"/>
            <path class="cls-9" d="M101.4,108.28A19.24,19.24,0,0,0,99,115.82c-.11.65-.18,1.31-.25,2s-.14,1.31-.16,2-.11,1.32-.11,2l0,2c0,1.34,0,2.67,0,4l.17,4,.24,4.05c.1,1.35.19,2.71.2,4.09-.44-1.3-.8-2.62-1.17-3.94s-.57-2.68-.82-4-.34-2.72-.52-4.08-.15-2.75-.15-4.13a34.26,34.26,0,0,1,1-8.24,19.13,19.13,0,0,1,1.45-3.93A9.71,9.71,0,0,1,101.4,108.28Z"/>
            <path class="cls-9" d="M110.82,108.16A10.58,10.58,0,0,1,113.2,112a21.27,21.27,0,0,1,1.16,4.38,36.67,36.67,0,0,1,.26,9c-.14,1.49-.36,3-.59,4.44s-.56,2.93-1,4.36-.81,2.86-1.3,4.26-1,2.78-1.67,4.13c.16-1.49.4-2.94.64-4.39l.67-4.34.61-4.33c.16-1.44.36-2.88.46-4.32l.18-2.16c.06-.72,0-1.43.08-2.15s0-1.44,0-2.16,0-1.44-.07-2.15A20.91,20.91,0,0,0,110.82,108.16Z"/>
          </g>
          <g>
            <ellipse class="cls-9" cx="64.69" cy="62.79" rx="13.27" ry="10.81" transform="translate(-17.27 100.36) rotate(-68.77)"/>
            <path class="cls-9" d="M44.31,96.75a18.36,18.36,0,0,1,.5-6.55,21.74,21.74,0,0,1,2.59-6.13,22.67,22.67,0,0,1,2-2.69c.38-.41.8-.79,1.19-1.18.21-.19.4-.4.61-.58l.68-.5a16,16,0,0,1,5.92-2.87,36.93,36.93,0,0,0-4.89,4,25,25,0,0,0-3.82,4.83,34.39,34.39,0,0,0-2.81,5.55A56.71,56.71,0,0,0,44.31,96.75Z"/>
            <path class="cls-9" d="M58.79,82a15.5,15.5,0,0,0-2.59,7.25A12.93,12.93,0,0,0,56.36,93a16.84,16.84,0,0,0,.45,1.83,18.8,18.8,0,0,0,.68,1.76,22.31,22.31,0,0,0,4.39,6.15c.88.93,1.85,1.77,2.82,2.61s2,1.61,3.11,2.3a87.44,87.44,0,0,0,13.66,7.53c4.78,2.17,9.68,4.08,14.59,6a106.67,106.67,0,0,1-15.19-4.6,68.73,68.73,0,0,1-14.2-7.33,37,37,0,0,1-6.16-5.25,22.17,22.17,0,0,1-4.45-6.85,14.64,14.64,0,0,1-.83-8.11A14.35,14.35,0,0,1,58.79,82Z"/>
            <path class="cls-9" d="M66.06,77.5a77.28,77.28,0,0,1,2.7,11.14A98.71,98.71,0,0,1,70.08,100a77.63,77.63,0,0,1-.23,11.51,43.77,43.77,0,0,1-2.54,11.2,92.21,92.21,0,0,0,1-11.3c0-1,0-1.89,0-2.83s0-1.88,0-2.82c0-1.88-.12-3.77-.21-5.65-.17-3.77-.52-7.53-.86-11.31Z"/>
            <path class="cls-9" d="M99.39,107q-8.46-3.59-16.67-7.81c-2.72-1.43-5.44-2.88-8.08-4.49a78,78,0,0,1-7.72-5.22l1.47-1.73a74.92,74.92,0,0,0,7.17,5.52c2.5,1.74,5.1,3.35,7.71,4.93C88.52,101.31,93.91,104.23,99.39,107Z"/>
          </g>
          <g>
            <ellipse class="cls-9" cx="143.5" cy="74.33" rx="9.45" ry="11.6" transform="translate(-17.17 56.99) rotate(-21.23)"/>
            <path class="cls-9" d="M161.31,104a36.3,36.3,0,0,0-4.18-10.16,22.3,22.3,0,0,0-3.34-4.23,34.13,34.13,0,0,0-4.28-3.54,14,14,0,0,1,5.18,2.52l.59.43c.18.16.35.34.53.51.35.34.71.67,1.05,1a21.07,21.07,0,0,1,1.75,2.35,18.7,18.7,0,0,1,2.26,5.36A15.85,15.85,0,0,1,161.31,104Z"/>
            <path class="cls-9" d="M148.65,91.12a12.73,12.73,0,0,1,3.12,6.22,12.86,12.86,0,0,1-.73,7.09,19.39,19.39,0,0,1-3.89,6,32.11,32.11,0,0,1-5.38,4.59,60.65,60.65,0,0,1-12.42,6.41,95.84,95.84,0,0,1-13.29,4c4.31-1.69,8.58-3.4,12.76-5.28a76.93,76.93,0,0,0,12-6.58c.95-.61,1.82-1.34,2.71-2a33.34,33.34,0,0,0,2.47-2.28,19.53,19.53,0,0,0,3.84-5.38c.23-.49.41-1,.6-1.53a14.87,14.87,0,0,0,.38-1.6,11.13,11.13,0,0,0,.15-3.31A13.36,13.36,0,0,0,148.65,91.12Z"/>
            <path class="cls-9" d="M142.29,87.19l-1,9.92c-.29,3.29-.6,6.58-.75,9.88-.08,1.64-.18,3.29-.18,4.94,0,.82,0,1.65,0,2.47s0,1.64,0,2.47a82.7,82.7,0,0,0,.86,9.88A38.12,38.12,0,0,1,139,117a67.63,67.63,0,0,1-.2-10.06,87.86,87.86,0,0,1,1.15-10A69,69,0,0,1,142.29,87.19Z"/>
            <path class="cls-9" d="M113.76,113.65c4.69-2.34,9.3-4.84,13.78-7.53,2.24-1.35,4.46-2.73,6.6-4.21a63.2,63.2,0,0,0,6.13-4.73l1.26,1.48a65,65,0,0,1-6.61,4.47c-2.25,1.37-4.57,2.62-6.9,3.84Q121,110.59,113.76,113.65Z"/>
          </g>
        </g>
        <path class="cls-11" d="M207.69,106.63a11.59,11.59,0,0,0-4.5-4.5,11.68,11.68,0,0,0,4.5-4.51,11.77,11.77,0,0,0,4.51,4.51A11.68,11.68,0,0,0,207.69,106.63Z"/>
        <path class="cls-11" d="M282.37,106.63a11.59,11.59,0,0,0-4.5-4.5,11.68,11.68,0,0,0,4.5-4.51,11.82,11.82,0,0,0,4.5,4.51A11.72,11.72,0,0,0,282.37,106.63Z"/>
        <path class="cls-11" d="M358.12,106.63a11.59,11.59,0,0,0-4.5-4.5,11.68,11.68,0,0,0,4.5-4.51,11.82,11.82,0,0,0,4.5,4.51A11.72,11.72,0,0,0,358.12,106.63Z"/>
      </g>
    </g>
  </g>
</svg>
